<svg xmlns="http://www.w3.org/2000/svg" width="985" height="985" viewBox="0 0 985 985" fill="none">
  <g id="CIRCLE">
    <!-- Small dots around the circle -->
    <g id="circle-dentro-5">
      <path d="M126.495 457.228C128.062 453.538 126.34 449.278 122.651 447.711C118.961 446.145 114.701 447.867 113.135 451.556C111.568 455.246 113.29 459.506 116.979 461.072C120.669 462.638 124.929 460.917 126.495 457.228Z" fill="#F40000"/>
      <path d="M122.377 448.384L122.365 448.379C119.045 446.97 115.213 448.519 113.804 451.838C112.395 455.157 113.943 458.99 117.263 460.399L117.275 460.404C120.594 461.813 124.427 460.264 125.836 456.945C127.245 453.626 125.696 449.793 122.377 448.384Z" stroke="#F40000" stroke-width="1.45147"/>
    </g>
    <g id="circle-dentro-4">
      <path d="M352.155 843.145C353.721 839.455 352 835.194 348.31 833.628C344.621 832.062 340.36 833.784 338.794 837.473C337.228 841.163 338.949 845.423 342.639 846.989C346.328 848.555 350.589 846.834 352.155 843.145Z" fill="#F40000"/>
      <path d="M351.493 842.868C352.903 839.546 351.353 835.709 348.031 834.299C344.708 832.888 340.871 834.438 339.461 837.761C338.05 841.084 339.601 844.92 342.923 846.331C346.246 847.741 350.083 846.191 351.493 842.868Z" stroke="#F40000" stroke-width="1.45147"/>
    </g>
    <g id="circle-dentro-3">
      <path d="M771.907 753.255C773.473 749.566 771.752 745.305 768.063 743.739C764.373 742.173 760.113 743.894 758.546 747.584C756.98 751.273 758.702 755.534 762.391 757.1C766.081 758.666 770.341 756.945 771.907 753.255Z" fill="#F40000"/>
      <path d="M771.234 752.966C772.643 749.647 771.094 745.814 767.775 744.405C764.456 742.996 760.623 744.545 759.214 747.864L759.209 747.876C757.8 751.196 759.349 755.028 762.668 756.437C765.987 757.846 769.82 756.298 771.229 752.978L771.234 752.966Z" stroke="#F40000" stroke-width="1.45147"/>
    </g>
    <g id="circle-dentro-2">
      <path d="M824.871 309.003C826.437 305.314 824.716 301.053 821.027 299.487C817.337 297.921 813.077 299.643 811.511 303.332C809.944 307.022 811.666 311.282 815.355 312.848C819.045 314.414 823.305 312.693 824.871 309.003Z" fill="#F40000"/>
    </g>
    <g id="circle-dentro-1">
      <path d="M416.965 129.543C418.531 125.854 416.809 121.593 413.12 120.027C409.43 118.461 405.17 120.182 403.604 123.872C402.038 127.561 403.759 131.822 407.448 133.388C411.138 134.954 415.398 133.233 416.965 129.543Z" fill="#F40000"/>
    </g>
    
    <!-- Main circle outline -->
    <path id="circle-fora" d="M838.312 639.538C919.279 448.791 830.285 228.523 639.538 147.556C448.791 66.5887 228.523 155.583 147.555 346.33C66.5879 537.077 155.582 757.345 346.329 838.312C537.076 919.28 757.344 830.286 838.312 639.538Z" stroke="#F40000" stroke-opacity="0.3" stroke-width="1.45147"/>
    
    <!-- Segment 1 - Top right -->
    <path id="fundo5-1" d="M575.569 159.71C438.408 116.146 263.641 191.585 199.853 310.339C234.074 337.995 239.139 342.974 323.678 412.218C362.89 329.837 445.767 300.978 517.55 311.814C683.203 336.815 697.348 198.389 575.569 159.71Z" fill="#A10000"/>
    
    <!-- Icon circle 1 -->
    <g id="icone1">
      <circle cx="591.474" cy="241.67" r="39.915" fill="#FFD4D4"/>
      <text x="591.474" y="250" text-anchor="middle" fill="#A10000" font-size="32" font-weight="bold">1</text>
    </g>
    
    <!-- Segment 2 - Left -->
    <path id="fundo4-5" d="M197.098 314.872C115.889 433.194 134.517 623.008 226.371 719.493C262.287 694.977 271.162 689.347 360.743 629.062C295.531 566.955 290.413 481.269 321.758 415.78C394.089 264.644 269.198 209.82 197.098 314.872Z" fill="#C50000"/>
    
    <!-- Icon circle 5 -->
    <g id="icone5">
      <circle cx="275.054" cy="328.758" r="39.915" fill="#FFD4D4"/>
      <text x="275.054" y="337" text-anchor="middle" fill="#A10000" font-size="32" font-weight="bold">5</text>
    </g>
    
    <!-- Segment 3 - Bottom left -->
    <path id="fundo3-4" d="M230.371 724.493C350.889 823.194 540.517 803.008 636.371 709.493C611.287 673.977 605.162 665.347 535.743 575.062C473.531 610.955 387.413 616.269 321.758 584.78C170.089 513.644 125.198 638.82 230.371 724.493Z" fill="#D80000"/>
    
    <!-- Icon circle 4 -->
    <g id="icone4">
      <circle cx="393.474" cy="691.67" r="39.915" fill="#FFD4D4"/>
      <text x="393.474" y="700" text-anchor="middle" fill="#A10000" font-size="32" font-weight="bold">4</text>
    </g>
    
    <!-- Segment 4 - Bottom right -->
    <path id="fundo2-3" d="M640.371 714.493C759.889 615.194 779.517 425.008 685.371 328.493C649.287 353.977 640.162 359.347 550.743 419.062C612.531 481.955 617.413 567.269 586.758 632.78C514.089 783.644 638.198 838.82 640.371 714.493Z" fill="#E50000"/>
    
    <!-- Icon circle 3 -->
    <g id="icone3">
      <circle cx="709.474" cy="541.67" r="39.915" fill="#FFD4D4"/>
      <text x="709.474" y="550" text-anchor="middle" fill="#A10000" font-size="32" font-weight="bold">3</text>
    </g>
    
    <!-- Segment 5 - Top -->
    <path id="fundo1-2" d="M690.371 323.493C590.889 204.194 401.517 224.008 305.371 318.493C330.287 354.977 339.162 363.347 409.743 453.062C471.531 390.955 557.413 385.269 622.758 416.78C773.089 488.644 817.198 363.82 690.371 323.493Z" fill="#F40000"/>
    
    <!-- Icon circle 2 -->
    <g id="icone2">
      <circle cx="591.474" cy="401.67" r="39.915" fill="#FFD4D4"/>
      <text x="591.474" y="410" text-anchor="middle" fill="#A10000" font-size="32" font-weight="bold">2</text>
    </g>
  </g>
</svg>