<svg xmlns="http://www.w3.org/2000/svg" width="985" height="985" viewBox="0 0 985 985" fill="none"><g id="CIRCLE"><g id="circle-dentro-5"><path id="Vector" d="M126.495 457.228C128.062 453.538 126.34 449.278 122.651 447.711C118.961 446.145 114.701 447.867 113.135 451.556C111.568 455.246 113.29 459.506 116.979 461.072C120.669 462.638 124.929 460.917 126.495 457.228Z" fill="#F4C36F"></path><path id="Border" d="M122.377 448.384L122.365 448.379C119.045 446.97 115.213 448.519 113.804 451.838C112.395 455.157 113.943 458.99 117.263 460.399L117.275 460.404C120.594 461.813 124.427 460.264 125.836 456.945C127.245 453.626 125.696 449.793 122.377 448.384Z" stroke="#F4C36F" stroke-width="1.45147"></path></g><g id="circle-dentro-4"><path id="Vector_2" d="M352.155 843.145C353.721 839.455 352 835.194 348.31 833.628C344.621 832.062 340.36 833.784 338.794 837.473C337.228 841.163 338.949 845.423 342.639 846.989C346.328 848.555 350.589 846.834 352.155 843.145Z" fill="#F4C36F"></path><path id="Border_2" d="M351.493 842.868C352.903 839.546 351.353 835.709 348.031 834.299C344.708 832.888 340.871 834.438 339.461 837.761C338.05 841.084 339.601 844.92 342.923 846.331C346.246 847.741 350.083 846.191 351.493 842.868Z" stroke="#F4C36F" stroke-width="1.45147"></path></g><g id="circle-dentro-3"><path id="Vector_3" d="M771.907 753.255C773.473 749.566 771.752 745.305 768.063 743.739C764.373 742.173 760.113 743.894 758.546 747.584C756.98 751.273 758.702 755.534 762.391 757.1C766.081 758.666 770.341 756.945 771.907 753.255Z" fill="#F4C36F"></path><path id="Border_3" d="M771.234 752.966C772.643 749.647 771.094 745.814 767.775 744.405C764.456 742.996 760.623 744.545 759.214 747.864L759.209 747.876C757.8 751.196 759.349 755.028 762.668 756.437C765.987 757.846 769.82 756.298 771.229 752.978L771.234 752.966Z" stroke="#F4C36F" stroke-width="1.45147"></path></g><g id="circle-dentro-2"><path id="Vector_4" d="M824.871 309.003C826.437 305.314 824.716 301.053 821.027 299.487C817.337 297.921 813.077 299.643 811.511 303.332C809.944 307.022 811.666 311.282 815.355 312.848C819.045 314.414 823.305 312.693 824.871 309.003Z" fill="#F4C36F"></path></g><g id="circle-dentro-1"><path id="Vector_5" d="M416.965 129.543C418.531 125.854 416.809 121.593 413.12 120.027C409.43 118.461 405.17 120.182 403.604 123.872C402.038 127.561 403.759 131.822 407.448 133.388C411.138 134.954 415.398 133.233 416.965 129.543Z" fill="#F4C26E"></path></g><path id="circle-fora" d="M838.312 639.538C919.279 448.791 830.285 228.523 639.538 147.556C448.791 66.5887 228.523 155.583 147.555 346.33C66.5879 537.077 155.582 757.345 346.329 838.312C537.076 919.28 757.344 830.286 838.312 639.538Z" stroke="#F4C472" stroke-opacity="0.25" stroke-width="1.45147"></path><path id="fundo5-1" d="M575.569 159.71C438.408 116.146 263.641 191.585 199.853 310.339C234.074 337.995 239.139 342.974 323.678 412.218C362.89 329.837 445.767 300.978 517.55 311.814C683.203 336.815 697.348 198.389 575.569 159.71Z" fill="#192A41"></path><g id="icone1"><path id="circle1" d="M591.474 281.585C613.519 281.585 631.39 263.715 631.39 241.67C631.39 219.625 613.519 201.754 591.474 201.754C569.43 201.754 551.559 219.625 551.559 241.67C551.559 263.715 569.43 281.585 591.474 281.585Z" fill="#F6D38F"></path><g id="1"><path id="Vector_6" d="M587.758 221.3C587.181 221.64 586.533 222.252 586.33 222.625C586.092 223.034 585.446 223.374 584.562 223.511C582.793 223.815 580.992 225.415 580.379 227.251C579.936 228.475 579.767 228.644 578.576 228.814C576.842 229.052 575.958 229.563 574.836 231.025C574.089 232.012 573.919 232.623 573.919 234.188C573.884 235.82 573.747 236.194 572.967 236.874C569.974 239.424 569.939 245.307 572.898 247.858C573.782 248.572 573.884 248.913 573.919 250.612C573.919 252.041 574.122 252.823 574.633 253.502C576.026 255.373 576.775 254.183 575.755 251.701C575.176 250.341 575.517 249.151 576.775 247.892C578.576 246.056 577.624 244.933 575.618 246.498C574.768 247.178 574.666 247.178 574.054 246.634C573.068 245.75 572.354 243.947 572.354 242.383C572.354 239.493 574.327 237.146 577.148 236.67C578.373 236.466 578.68 236.262 578.746 235.616C578.883 234.833 578.815 234.8 577.148 235.003C575.585 235.173 575.414 235.14 575.414 234.527C575.414 232.147 577.353 230.346 579.87 230.414L581.468 230.447L581.638 229.052C581.876 227.183 582.828 225.993 584.494 225.415C585.718 224.972 585.956 225.006 587.146 225.585C588.473 226.264 589.152 227.216 589.526 228.882C589.833 230.311 590.853 229.971 590.989 228.441C591.091 226.978 590.071 225.244 588.676 224.428C587.419 223.714 587.52 223.339 589.119 222.558C590.172 222.014 590.547 221.979 591.567 222.32C593.675 223 595.001 225.55 593.37 225.788C592.246 225.924 592.383 226.877 593.54 227.013C594.424 227.115 594.457 227.183 594.457 229.155V231.161H591.567C589.118 231.161 588.574 231.06 587.997 230.481C587.622 230.108 587.316 229.495 587.316 229.121C587.316 228.679 587.078 228.441 586.636 228.441C585.684 228.441 585.616 229.971 586.533 231.364C587.214 232.453 588.711 232.861 591.77 232.861H594.457V243.063H589.22C585.072 243.063 583.915 243.165 583.575 243.573C582.725 244.593 583.575 244.763 589.05 244.763H594.457V253.264H592.927C592.077 253.264 590.989 253.502 590.547 253.809C589.696 254.353 588.812 256.394 589.187 257.006C589.595 257.652 590.377 257.346 590.751 256.427C591.193 255.237 591.635 254.965 593.199 254.965H594.457V256.971C594.457 258.91 594.424 258.977 593.437 259.149C592.246 259.387 592.043 260.372 593.097 260.644C593.778 260.815 593.778 260.882 593.233 261.461C592.927 261.8 592.145 262.243 591.532 262.446C590.58 262.786 590.172 262.719 589.119 262.208C587.622 261.461 587.419 261.018 588.404 260.577C589.458 260.101 589.969 259.182 589.425 258.638C589.119 258.331 588.744 258.4 587.69 258.977C586.976 259.387 586.024 259.726 585.581 259.726C584.289 259.726 582.555 258.468 582.011 257.141C581.535 256.019 581.535 255.883 582.114 255.441C582.453 255.203 582.828 254.965 582.998 254.965C583.134 254.965 583.236 254.659 583.236 254.285C583.236 253.809 582.998 253.605 582.453 253.605C582.011 253.605 581.535 253.74 581.331 253.945C581.162 254.115 580.413 254.388 579.665 254.558C577.931 254.897 577.591 255.883 579.087 256.189C579.87 256.359 580.141 256.632 580.311 257.414C580.617 258.977 582.861 261.018 584.562 261.291C585.446 261.426 586.126 261.767 586.33 262.175C587.351 264.079 591.193 264.793 593.37 263.467C594.865 262.548 595.817 260.882 595.817 259.114V257.685H597.45C599.422 257.685 600.578 258.638 600.578 260.271C600.578 261.834 601.292 262.583 602.788 262.583C604.252 262.583 604.999 261.834 604.999 260.339C604.999 259.114 603.91 258.025 602.687 258.025C602.109 258.025 601.395 257.685 600.919 257.176C600.238 256.427 599.83 256.325 597.959 256.325H595.817V253.264H598.47C600.714 253.264 601.259 253.367 601.768 253.945C603.095 255.407 605.68 254.319 605.68 252.312C605.68 250.306 602.823 249.286 601.565 250.817C601.054 251.463 600.646 251.565 598.402 251.565H595.817V247.485H599.048C601.836 247.485 602.312 247.551 602.585 248.13C603.061 248.98 604.49 249.321 605.442 248.81C606.462 248.265 606.7 247.858 606.7 246.566C606.7 244.628 604.523 243.777 602.857 245.104C602.143 245.682 601.497 245.783 598.912 245.783H595.817V243.743C595.817 241.975 595.92 241.703 596.43 241.703C596.804 241.703 597.348 242.01 597.688 242.383C598.47 243.233 600.273 243.267 601.021 242.451C601.735 241.668 601.768 239.867 601.054 239.186C600.306 238.404 598.436 238.506 597.688 239.323C597.348 239.696 596.804 240.002 596.43 240.002C595.92 240.002 595.817 239.731 595.817 238.302V236.601H599.184C602.279 236.601 602.653 236.67 603.571 237.452C604.761 238.439 605.204 238.506 605.475 237.758C605.612 237.419 605.305 236.839 604.693 236.228C603.707 235.241 603.639 235.241 599.762 235.241H595.817V232.861H601.633L603.231 231.399C604.115 230.584 605.204 229.903 605.645 229.869C606.835 229.801 607.719 228.849 607.719 227.591C607.719 226.264 606.835 225.38 605.442 225.38C604.115 225.38 603.196 226.434 603.231 227.829C603.265 228.644 602.958 229.257 602.177 230.039C601.157 231.126 601.021 231.161 598.47 231.161H595.817V229.29C595.817 227.692 595.92 227.421 596.43 227.421C596.804 227.421 597.348 227.727 597.688 228.1C599.015 229.563 601.598 228.475 601.598 226.469C601.598 224.463 598.742 223.442 597.483 224.972C596.702 225.958 595.817 225.958 595.817 224.939C595.817 223.85 594.627 222.082 593.37 221.3C591.873 220.416 589.22 220.381 587.758 221.3ZM599.899 226.605C599.899 227.081 599.184 227.251 598.777 226.843C598.47 226.537 599.218 225.686 599.592 225.924C599.762 226.026 599.899 226.332 599.899 226.605ZM606.019 227.522C606.019 227.795 605.918 228.1 605.781 228.203C605.475 228.509 604.625 227.76 604.863 227.386C605.135 226.91 606.019 227.013 606.019 227.522ZM600 240.853C600.035 241.023 599.797 241.227 599.491 241.295C599.116 241.362 598.878 241.192 598.878 240.853C598.878 240.275 599.899 240.24 600 240.853ZM604.931 246.702C604.796 247.45 604.183 247.381 604.047 246.667C603.979 246.328 604.148 246.123 604.49 246.123C604.829 246.123 604.999 246.361 604.931 246.702ZM603.979 252.449C603.979 252.925 603.265 253.094 602.857 252.687C602.55 252.38 603.299 251.531 603.672 251.769C603.844 251.871 603.979 252.177 603.979 252.449ZM603.231 260.304C603.095 261.053 602.482 260.985 602.347 260.271C602.279 259.929 602.449 259.726 602.788 259.726C603.13 259.726 603.299 259.964 603.231 260.304Z" fill="black"></path><path id="Vector_7" d="M585.038 225.958C584.051 226.162 582.828 227.692 582.963 228.576C583.134 229.665 584.12 229.631 584.664 228.543C584.935 227.998 585.446 227.557 585.888 227.489C586.467 227.386 586.636 227.183 586.568 226.672C586.467 225.891 586.16 225.755 585.038 225.958Z" fill="black"></path><path id="Vector_8" d="M578.678 231.739C578.135 232.318 578.543 233.134 579.564 233.405C580.924 233.813 581.739 235.106 581.4 236.398C581.23 237.077 580.787 237.487 579.835 237.86C578.032 238.574 577.931 239.662 579.63 239.662C581.127 239.662 582.76 238.166 583.066 236.535C583.337 235.071 582.59 233.099 581.468 232.42C580.516 231.807 578.984 231.433 578.678 231.739Z" fill="black"></path><path id="Vector_9" d="M608.094 231.944C607.617 232.147 607.108 232.793 606.937 233.337C606.223 235.446 609.182 237.18 610.745 235.616C612.583 233.78 610.406 230.753 608.094 231.944ZM609.76 234.086C609.76 234.664 608.876 234.732 608.536 234.188C608.298 233.78 609.046 233.134 609.488 233.405C609.623 233.507 609.76 233.813 609.76 234.086Z" fill="black"></path><path id="Vector_10" d="M586.533 235.82C586.398 235.922 586.295 236.297 586.295 236.601C586.295 237.554 584.97 238.948 583.813 239.255C583.031 239.458 582.691 239.764 582.623 240.343C582.487 241.091 582.59 241.124 583.983 240.921C586.229 240.615 588.506 237.758 587.86 236.092C587.657 235.582 586.908 235.411 586.533 235.82Z" fill="black"></path><path id="Vector_11" d="M589.934 235.82C589.39 236.33 589.764 237.146 590.75 237.52C592.077 238.029 592.008 239.288 590.615 239.934C589.356 240.546 589.526 241.567 590.853 241.465C593.811 241.26 594.219 236.942 591.362 235.955C590.071 235.514 590.207 235.514 589.934 235.82Z" fill="black"></path><path id="Vector_12" d="M606.699 239.526C606.326 239.934 606.394 240.172 607.005 240.785C607.38 241.227 607.719 242.01 607.719 242.587C607.719 243.846 608.025 244.287 609.079 244.695C609.998 245.036 611.426 244.661 611.869 243.981C612.345 243.233 612.14 241.465 611.528 240.921C611.188 240.581 610.406 240.343 609.828 240.343C609.25 240.343 608.671 240.207 608.57 240.002C608.094 239.255 607.108 238.982 606.699 239.526ZM610.372 242.621C610.236 243.37 609.624 243.301 609.489 242.587C609.42 242.248 609.59 242.043 609.93 242.043C610.269 242.043 610.441 242.281 610.372 242.621Z" fill="black"></path><path id="Vector_13" d="M575.244 240.683C574.836 241.362 575.449 243.028 576.502 243.914C577.318 244.593 577.862 244.763 579.359 244.763C581.127 244.763 581.23 244.695 581.127 243.981C581.025 243.335 580.787 243.233 579.427 243.132C577.862 243.028 577.318 242.689 576.604 241.261C576.196 240.445 575.55 240.172 575.244 240.683Z" fill="black"></path><path id="Vector_14" d="M579.564 248.334C578.169 248.946 577.115 251.054 577.862 251.768C578.407 252.312 578.815 252.041 579.495 250.714C580.04 249.694 580.04 249.694 583.575 249.524C586.875 249.354 587.146 249.286 587.146 248.675C587.146 248.062 586.908 247.994 583.915 247.926C581.706 247.858 580.344 247.994 579.564 248.334Z" fill="black"></path><path id="Vector_15" d="M588.473 248.334C588.133 249.218 588.812 249.559 590.58 249.456C591.975 249.354 592.247 249.252 592.247 248.675C592.247 248.096 591.975 247.994 590.445 247.892C589.05 247.824 588.609 247.892 588.473 248.334Z" fill="black"></path><path id="Vector_16" d="M610.269 248.232C609.317 248.776 609.079 249.184 609.079 250.408C609.079 252.312 611.087 253.231 612.753 252.041C613.262 251.701 613.5 251.19 613.5 250.374C613.5 249.321 612.786 248.164 612.14 248.164C611.971 248.164 611.664 248.096 611.393 247.994C611.155 247.926 610.644 248.027 610.269 248.232ZM611.801 250.408C611.801 250.681 611.563 250.884 611.29 250.884C610.78 250.884 610.576 250.17 610.984 249.762C611.325 249.456 611.801 249.83 611.801 250.408Z" fill="black"></path><path id="Vector_17" d="M583.236 251.531C583.236 251.939 583.542 252.245 584.086 252.38C585.887 252.823 585.991 254.999 584.256 255.611C583.575 255.849 583.236 256.189 583.236 256.632C583.236 257.482 584.188 257.584 585.616 256.835C588.336 255.441 587.214 250.884 584.12 250.884C583.474 250.884 583.236 251.055 583.236 251.531Z" fill="black"></path><path id="Vector_18" d="M606.87 255.305C606.088 256.155 606.053 257.89 606.802 258.604C608.127 259.929 610.78 258.807 610.78 256.938C610.78 254.93 608.195 253.843 606.87 255.305ZM609.079 256.767C609.079 257.039 608.977 257.346 608.841 257.447C608.536 257.754 607.686 257.005 607.924 256.632C608.195 256.155 609.079 256.257 609.079 256.767Z" fill="black"></path></g></g><g id="fundo4-5"><path id="Vector_19" d="M197.098 314.872C115.889 433.194 134.517 623.008 226.371 719.493C262.287 694.977 271.162 689.347 360.743 629.062C295.531 566.955 290.413 481.269 321.758 415.78C394.089 264.644 269.198 209.82 197.098 314.872Z" fill="url(#paint0_linear_73_5)"></path><path id="Vector_20" d="M197.098 314.872C115.889 433.194 134.517 623.008 226.371 719.493C262.287 694.977 271.162 689.347 360.743 629.062C295.531 566.955 290.413 481.269 321.758 415.78C394.089 264.644 269.198 209.82 197.098 314.872Z" fill="#30425A"></path></g><g id="icone5"><g id="Clip path group"><mask id="mask0_73_5" style="mask-type:luminance" maskUnits="userSpaceOnUse" x="235" y="289" width="81" height="81"><g id="clip0_2313_550"><path id="Vector_21" d="M271.542 369.42C293.466 371.724 313.107 355.819 315.411 333.895C317.715 311.971 301.81 292.33 279.887 290.026C257.963 287.722 238.322 303.627 236.017 325.551C233.713 347.475 249.618 367.115 271.542 369.42Z" fill="white"></path></g></mask><g mask="url(#mask0_73_5)"><g id="Group"><path id="circle5" d="M275.054 368.674C297.098 368.674 314.969 350.803 314.969 328.758C314.969 306.713 297.098 288.843 275.054 288.843C253.009 288.843 235.138 306.713 235.138 328.758C235.138 350.803 253.009 368.674 275.054 368.674Z" fill="#F6D38F"></path><path id="5" d="M251.181 311.577C250.656 312.889 247.682 331.091 247.682 333.015C247.682 334.46 247.769 334.503 250.788 335.552L253.894 336.647L254.637 335.728C255.338 334.853 255.469 334.809 256.301 335.509C256.825 335.902 257.526 336.865 257.919 337.609C258.356 338.441 259.101 339.14 259.757 339.315C260.456 339.49 261.069 340.146 261.464 341.109C261.857 342.071 262.557 342.729 263.432 343.035C264.131 343.296 264.744 343.778 264.744 344.128C264.744 345.179 266.801 346.928 268.026 346.928C268.682 346.928 269.12 347.19 269.12 347.54C269.12 348.722 271.395 350.079 273.057 349.86C273.888 349.773 275.157 349.947 275.813 350.297C277.433 351.085 279.357 350.691 280.452 349.291C281.019 348.547 281.72 348.241 282.77 348.241C284.301 348.241 286.182 346.841 286.182 345.703C286.182 345.396 286.621 345.179 287.19 345.179C288.545 345.179 289.989 344.084 290.296 342.772C290.47 342.16 290.863 341.678 291.258 341.678C292.483 341.678 294.058 339.621 294.058 338.003C294.058 336.034 295.37 335.159 296.945 336.034C297.82 336.471 298.389 336.428 300.709 335.509C303.289 334.503 303.465 334.327 303.596 332.928C303.726 330.828 300.446 311.577 299.79 310.921C299.395 310.528 298.213 311.008 294.801 312.759C289.201 315.734 289.114 315.778 289.332 317.22C289.595 318.884 288.239 319.146 284.127 318.228C281.414 317.615 280.495 317.615 278.614 318.009C275.813 318.665 275.552 318.665 272.75 318.009C270.869 317.615 269.95 317.615 267.238 318.228C263.039 319.19 261.901 318.927 261.901 317.046C261.901 315.734 261.638 315.558 257.307 313.152C254.769 311.796 252.45 310.658 252.144 310.615C251.838 310.615 251.401 311.052 251.181 311.577ZM259.057 317.527C259.057 317.702 257.656 321.334 255.951 325.622C253.063 332.709 252.713 333.365 251.881 333.102C251.357 332.972 250.832 332.709 250.612 332.533C250.35 332.271 252.319 318.621 253.15 315.165C253.369 314.246 253.412 314.246 256.212 315.734C257.789 316.564 259.057 317.352 259.057 317.527ZM299.745 323.958C300.446 328.508 300.926 332.359 300.709 332.533C300.533 332.709 300.007 332.972 299.483 333.102C298.652 333.365 298.302 332.665 295.37 325.489C293.62 321.158 292.307 317.44 292.483 317.265C292.657 317.133 293.926 316.39 295.283 315.646C297.383 314.509 297.82 314.421 298.083 314.989C298.258 315.339 299.002 319.364 299.745 323.958ZM271.744 320.678C271.744 320.896 271.175 321.377 270.432 321.771C268.814 322.602 268.245 323.652 268.245 325.796C268.288 327.59 268.814 328.552 270.3 329.34C271.788 330.128 273.145 329.996 277.083 328.552C279.051 327.809 280.758 327.24 280.845 327.24C281.371 327.24 291.432 337.522 291.432 338.046C291.432 338.396 291.126 338.747 290.733 338.921C290.251 339.097 288.808 337.959 285.964 335.116C282.639 331.834 281.764 331.134 280.976 331.397C280.495 331.528 280.057 332.009 280.057 332.403C280.057 332.796 281.851 334.94 284.038 337.127C286.838 339.927 287.976 341.371 287.801 341.853C287.277 343.165 285.92 342.553 283.12 339.709C281.195 337.783 279.97 336.865 279.401 336.953C277.739 337.216 278.176 338.572 280.932 341.458C282.726 343.296 283.558 344.521 283.426 344.959C282.989 346.052 282.07 345.703 280.057 343.602C278.526 342.071 277.87 341.678 277.038 341.81C275.639 342.071 274.807 341.765 275.07 341.022C275.507 339.927 274.064 337.477 272.707 336.91C271.92 336.558 271.264 335.902 271.132 335.29C270.782 333.934 269.032 332.84 267.5 333.015C266.67 333.102 266.013 332.84 265.4 332.14C264.92 331.615 263.825 331.047 262.95 330.915C261.594 330.696 261.157 330.871 259.757 332.097C258.138 333.496 258.138 333.496 257.263 332.622C256.388 331.747 256.388 331.747 258.488 326.408L260.588 321.071L262.776 321.334C264.131 321.508 265.882 321.377 267.37 320.941C270.213 320.196 271.744 320.065 271.744 320.678ZM283.995 320.941C285.57 321.421 287.057 321.553 288.545 321.377L290.776 321.071L292.963 326.627C294.189 329.69 295.196 332.316 295.283 332.446C295.326 332.622 294.67 333.102 293.752 333.541L292.177 334.284L287.539 329.69C284.345 326.54 282.464 325.009 281.588 324.79C280.67 324.616 279.095 324.965 276.557 325.928C272.226 327.503 270.739 327.416 270.958 325.622C271.045 324.703 271.701 324.134 274.151 322.778C279.051 320.109 280.363 319.846 283.995 320.941ZM263.432 334.021C263.914 334.59 263.825 334.896 262.995 335.772C261.901 336.91 260.632 337.216 260.107 336.384C259.844 335.946 261.944 333.365 262.6 333.365C262.732 333.365 263.126 333.671 263.432 334.021ZM268.595 336.69C268.725 337.696 265.489 340.978 264.613 340.672C263.475 340.322 263.825 338.921 265.445 337.259C267.238 335.422 268.376 335.203 268.595 336.69ZM272.183 340.278C272.183 341.152 269.164 344.303 268.376 344.303C266.976 344.303 267.326 342.859 269.12 341.022C270.958 339.141 272.183 338.878 272.183 340.278ZM274.107 344.128C275.07 344.478 274.983 345.746 273.932 346.71C272.27 348.241 270.913 346.359 272.489 344.653C273.276 343.734 273.189 343.778 274.107 344.128ZM278.745 346.71C278.745 347.41 277.563 348.415 277.301 347.935C277.17 347.759 277.17 347.016 277.301 346.359C277.476 345.396 277.65 345.266 278.132 345.659C278.482 345.922 278.745 346.404 278.745 346.71Z" fill="black"></path></g></g></g></g><g id="fundo3-4"><path id="Vector_22" d="M227.688 721.488C314.503 834.667 528.38 866.101 636.64 808.096C624.623 766.356 607.098 763.012 577.938 659.159C498.646 703.071 414.677 681.831 362.37 632.221C241.658 517.737 150.609 621 227.688 721.488Z" fill="url(#paint1_linear_73_5)"></path><path id="Vector_23" d="M227.688 721.488C314.503 834.667 528.38 866.101 636.64 808.096C624.623 766.356 607.098 763.012 577.938 659.159C498.646 703.071 414.677 681.831 362.37 632.221C241.658 517.737 150.609 621 227.688 721.488Z" fill="#233348"></path></g><g id="icone4"><path id="circle4" d="M261.99 687.997C284.035 687.997 301.906 670.126 301.906 648.082C301.906 626.037 284.035 608.166 261.99 608.166C239.946 608.166 222.075 626.037 222.075 648.082C222.075 670.126 239.946 687.997 261.99 687.997Z" fill="#F6D38F"></path><g id="4"><path id="Vector_24" d="M247.171 626.164C247.062 626.491 246.953 627.144 246.953 627.616C246.953 628.414 246.808 628.487 245.103 628.487C242.889 628.487 241.365 629.285 240.603 630.882C239.768 632.623 239.768 667.894 240.603 669.636C241.801 672.104 241.075 672.031 263.173 672.031C284.982 671.995 283.567 672.14 285.163 669.854C285.744 669.055 285.78 667.35 285.78 650.331C285.78 633.712 285.708 631.571 285.199 630.664C284.329 629.213 282.841 628.487 280.736 628.487C279.031 628.487 278.886 628.414 278.886 627.616C278.886 626.092 278.486 625.584 277.398 625.584C276.309 625.584 275.62 626.418 275.62 627.725C275.62 628.342 275.402 628.487 274.531 628.487C273.624 628.487 273.443 628.342 273.443 627.616C273.443 626.092 273.043 625.584 271.955 625.584C270.866 625.584 270.177 626.418 270.177 627.725C270.177 628.487 269.995 628.487 262.919 628.487C255.843 628.487 255.662 628.487 255.662 627.725C255.662 626.418 254.973 625.584 253.884 625.584C252.795 625.584 252.396 626.092 252.396 627.616C252.396 628.342 252.215 628.487 251.308 628.487C250.437 628.487 250.219 628.342 250.219 627.725C250.219 626.418 249.53 625.584 248.441 625.584C247.824 625.584 247.316 625.802 247.171 626.164ZM246.953 632.406C246.953 633.64 247.534 634.293 248.659 634.293C249.53 634.293 250.219 633.349 250.219 632.152C250.219 631.535 250.437 631.39 251.308 631.39C252.251 631.39 252.396 631.535 252.396 632.406C252.396 633.64 252.977 634.293 254.102 634.293C254.973 634.293 255.662 633.349 255.662 632.152C255.662 631.39 255.843 631.39 262.919 631.39C269.995 631.39 270.177 631.39 270.177 632.152C270.177 633.349 270.866 634.293 271.737 634.293C272.862 634.293 273.443 633.64 273.443 632.406C273.443 631.535 273.588 631.39 274.531 631.39C275.402 631.39 275.62 631.535 275.62 632.152C275.62 633.349 276.309 634.293 277.18 634.293C278.305 634.293 278.886 633.64 278.886 632.406C278.886 631.462 278.994 631.39 280.301 631.39C282.115 631.39 282.623 632.043 282.805 634.692L282.95 636.833H243.325V634.547C243.325 631.898 243.687 631.39 245.574 631.39C246.844 631.39 246.953 631.462 246.953 632.406ZM282.805 653.996C282.732 665.173 282.587 668.039 282.188 668.511C281.752 669.055 279.938 669.128 262.956 669.128C248.84 669.128 244.087 669.019 243.76 668.693C243.433 668.366 243.325 664.628 243.325 654.178V640.099H282.913L282.805 653.996Z" fill="black"></path><path id="Vector_25" d="M261.069 643.764C258.928 644.09 256.714 645.215 255.082 646.884C250.945 651.021 250.945 658.206 255.082 662.342C257.186 664.447 259.037 665.245 262.411 665.427C265.024 665.572 265.641 665.463 267.347 664.701C274.205 661.544 276.055 652.908 271.12 647.102C269.923 645.687 266.222 643.836 264.19 643.655C263.391 643.546 261.976 643.618 261.069 643.764ZM265.278 647.029C268.145 647.828 270.903 651.529 270.903 654.577C270.903 658.605 266.838 662.596 262.702 662.596C261.069 662.596 258.093 661.036 256.86 659.548C254.138 656.246 254.392 652.255 257.477 649.17C259.799 646.848 262.194 646.195 265.278 647.029Z" fill="black"></path><path id="Vector_26" d="M263.935 652.69L261.867 654.758L260.815 653.779C259.726 652.726 258.638 652.509 257.912 653.234C257.114 654.033 257.44 654.795 259.436 656.754C261.903 659.222 262.303 659.149 265.75 655.557C268.326 652.944 268.798 651.928 267.927 651.057C267.056 650.186 265.967 650.622 263.935 652.69Z" fill="black"></path></g></g><g id="fundo2-3"><path id="Vector_27" d="M603.508 820.168C740.144 777.241 840.185 614.454 825.113 479.746C781.528 476.599 772.107 474.862 663.916 466.33C678.489 556.88 629.603 628.909 564.862 661.252C415.459 735.89 482.193 858.284 603.508 820.168Z" fill="url(#paint2_linear_73_5)"></path><path id="Vector_28" d="M603.508 820.168C740.144 777.241 840.185 614.454 825.113 479.746C781.528 476.599 772.107 474.862 663.916 466.33C678.489 556.88 629.603 628.909 564.862 661.252C415.459 735.89 482.193 858.284 603.508 820.168Z" fill="#475972"></path></g><g id="icone3"><path id="circle3" d="M558.09 795.406C580.135 795.406 598.006 777.535 598.006 755.49C598.006 733.446 580.135 715.575 558.09 715.575C536.046 715.575 518.175 733.446 518.175 755.49C518.175 777.535 536.046 795.406 558.09 795.406Z" fill="#F6D38F"></path><g id="3"><path id="Vector_29" d="M551.257 729.431C541.671 732.225 534.407 739.661 531.957 749.117C531.054 752.555 531.054 759.691 531.957 763.131C534.449 772.802 542.445 780.755 552.031 782.99C555.469 783.806 562.089 783.806 565.57 782.99C575.113 780.755 583.108 772.802 585.602 763.131C586.505 759.691 586.505 752.555 585.602 749.117C583.108 739.489 575.372 731.751 565.828 729.301C562.218 728.355 554.652 728.442 551.257 729.431ZM566.216 734.029C570.04 735.276 572.792 737.125 575.843 740.349C579.97 744.776 582.078 750.063 582.078 756.123C582.078 762.7 579.97 767.601 575.113 772.501C567.849 779.852 557.919 781.528 548.463 777.058C544.637 775.209 539.651 770.266 537.845 766.44C533.59 757.457 535.051 747.484 541.671 740.434C548.248 733.384 557.275 731.02 566.216 734.029Z" fill="black"></path><path id="Vector_30" d="M555.813 742.369C552.761 743.099 550.569 745.808 551.299 747.914C551.902 749.59 553.707 749.634 555.598 747.999C557.275 746.538 558.908 746.281 560.413 747.355C561.917 748.387 561.573 749.59 558.993 752.126C556.328 754.705 555.77 755.779 555.77 758.488C555.77 760.681 556.716 761.497 558.779 761.067C559.982 760.809 560.499 759.906 560.499 757.929C560.499 757.328 561.443 756.038 563.034 754.447C566.043 751.481 566.817 749.461 566.087 746.667C565.484 744.475 563.507 742.928 560.499 742.369C557.963 741.896 557.876 741.896 555.813 742.369Z" fill="black"></path><path id="Vector_31" d="M555.598 764.378C554.051 766.569 555.298 769.02 557.876 769.02C559.854 769.02 560.928 767.988 560.928 766.14C560.928 764.463 559.725 763.431 557.79 763.431C556.672 763.431 556.071 763.69 555.598 764.378Z" fill="black"></path></g></g><g id="fundo1-2"><path id="Vector_32" d="M562.542 155.416C694.373 183.195 834.941 343.822 827.944 489.736C821.73 619.29 682.544 641.525 663.965 472.502C655.915 399.259 604.956 328.931 514.118 311.959C514.133 311.93 514.146 311.902 514.159 311.875C670.392 332.769 688.708 206.865 582.535 162.138C582.591 162.016 562.488 155.538 562.542 155.416Z" fill="url(#paint3_linear_73_5)"></path><path id="Vector_33" d="M562.542 155.416C694.373 183.195 834.941 343.822 827.944 489.736C821.73 619.29 682.544 641.525 663.965 472.502C655.915 399.259 604.956 328.931 514.118 311.959C514.133 311.93 514.146 311.902 514.159 311.875C670.392 332.769 688.708 206.865 582.535 162.138C582.591 162.016 562.488 155.538 562.542 155.416Z" fill="#30425A"></path></g><g id="icone2"><path id="circle2" d="M754.039 555.913C776.084 555.913 793.954 538.043 793.954 515.998C793.954 493.953 776.084 476.082 754.039 476.082C731.994 476.082 714.124 493.953 714.124 515.998C714.124 538.043 731.994 555.913 754.039 555.913Z" fill="#F6D38F"></path><g id="2"><path id="Vector_34" d="M751.273 491.26C747.77 493.031 746.384 497.458 748.155 501.154C749.463 503.81 751.464 505.003 754.698 505.003C757.932 505.003 759.933 503.81 761.241 501.154C763.012 497.458 761.626 493.031 758.124 491.26C756.392 490.376 753.004 490.376 751.273 491.26ZM756.583 494.224C757.932 494.918 759.086 497.188 758.74 498.537C758.317 500.268 756.507 501.731 754.775 501.731C750.695 501.731 749.078 496.496 752.543 494.38C753.967 493.494 755.122 493.455 756.583 494.224Z" fill="black"></path><path id="Vector_35" d="M739.918 502.116C738.571 503.425 736.877 505.311 736.222 506.35C734.798 508.544 733.335 512.662 732.988 515.279L732.758 517.127H736.029L736.492 514.741C737.222 511.008 739.07 507.659 742.034 504.772L744.613 502.231L743.844 501.037C743.42 500.345 742.919 499.807 742.728 499.807C742.574 499.807 741.302 500.846 739.918 502.116Z" fill="black"></path><path id="Vector_36" d="M765.552 501.037L764.783 502.231L767.362 504.772C770.326 507.659 772.174 511.008 772.905 514.741L773.367 517.127H776.639L776.408 515.279C776.061 512.662 774.598 508.544 773.174 506.35C771.981 504.502 767.323 499.807 766.668 499.807C766.477 499.807 765.976 500.345 765.552 501.037Z" fill="black"></path><path id="Vector_37" d="M733.72 521.67C732.18 522.633 730.525 524.634 730.218 525.827C730.064 526.366 730.064 527.79 730.141 529.022C730.679 536.527 740.764 538.067 743.959 531.177C745.382 528.097 744.459 524.325 741.803 522.286C740.572 521.361 739.918 521.169 737.608 521.053C735.452 520.976 734.645 521.092 733.72 521.67ZM739.918 525.364C741.689 527.135 741.765 529.367 740.109 531.023C738.455 532.678 736.222 532.601 734.451 530.83C732.988 529.367 732.797 528.137 733.72 526.366C735.029 523.826 737.916 523.363 739.918 525.364Z" fill="black"></path><path id="Vector_38" d="M768.748 521.593C767.015 522.479 766.207 523.325 765.438 525.019C762.551 531.292 769.017 537.721 775.329 534.873C777.716 533.794 779.064 531.793 779.255 529.022C779.332 527.79 779.332 526.326 779.179 525.827C778.871 524.557 776.832 522.246 775.445 521.516C774.021 520.785 770.21 520.823 768.748 521.593ZM773.945 524.634C776.445 525.942 776.908 528.868 774.945 530.83C773.174 532.601 770.941 532.678 769.287 531.023C767.631 529.367 767.709 527.135 769.478 525.364C770.942 523.903 772.174 523.709 773.945 524.634Z" fill="black"></path><path id="Vector_39" d="M745.345 536.181C744.998 536.951 744.69 537.644 744.69 537.721C744.69 537.798 746.076 538.336 747.808 538.876C750.233 539.645 751.696 539.838 754.698 539.838C757.701 539.838 759.163 539.645 761.588 538.876C763.32 538.336 764.706 537.798 764.706 537.721C764.706 537.336 763.397 534.834 763.205 534.834C763.089 534.834 762.012 535.218 760.857 535.681C757.816 536.912 751.58 536.912 748.539 535.681C747.384 535.218 746.307 534.834 746.191 534.834C746.076 534.834 745.692 535.449 745.345 536.181Z" fill="black"></path></g></g></g><defs><linearGradient id="paint0_linear_73_5" x1="290.426" y1="261.089" x2="189.762" y2="711.003" gradientUnits="userSpaceOnUse"><stop stop-color="#32353C"></stop><stop offset="1" stop-color="#212126"></stop></linearGradient><linearGradient id="paint1_linear_73_5" x1="644.108" y1="737.05" x2="193.877" y2="694.164" gradientUnits="userSpaceOnUse"><stop stop-color="#32353C"></stop><stop offset="1" stop-color="#32353C"></stop></linearGradient><linearGradient id="paint2_linear_73_5" x1="811.455" y1="665.466" x2="492.162" y2="633.284" gradientUnits="userSpaceOnUse"><stop stop-color="#232528"></stop><stop offset="1" stop-color="#474B54"></stop></linearGradient><linearGradient id="paint3_linear_73_5" x1="838.449" y1="392.54" x2="509.145" y2="359.246" gradientUnits="userSpaceOnUse"><stop stop-color="#40444D"></stop><stop offset="1" stop-color="#252527"></stop></linearGradient></defs></svg>