<svg version="1.2" xmlns="http://www.w3.org/2000/svg" viewBox="0 0 1000 960" width="1000" height="960">
	<style>
		.s0 { fill: #000001 } 
	</style>
	<path id="Path 0" class="s0" d="m875.85 123.75c-66.28 66.41-202.26 202.99-302.18 303.5-99.92 100.51-181.44 182.98-181.17 183.25 0.27 0.28 74.29-54.06 164.47-120.75 90.18-66.69 166.11-122.37 168.72-123.75 3.63-1.91 6.65-2.59 12.78-2.87 6.3-0.29 9 0.04 12.53 1.55 2.47 1.06 6.24 3.25 8.37 4.87 2.72 2.08 4.98 5.31 7.66 10.95 2.09 4.4 5.6 13.63 7.8 20.5 2.2 6.88 5.15 17.68 6.56 24 1.42 6.33 3.29 16.23 4.16 22 0.88 5.78 1.84 19.95 2.15 31.5 0.33 12.45 0.1 25.68-0.56 32.5-0.61 6.33-1.98 16.45-3.03 22.5-1.06 6.05-3.07 15.5-4.47 21-1.4 5.5-4.38 15.4-6.63 22-2.25 6.6-8.09 20.1-12.98 30-4.89 9.9-12.34 23.17-16.55 29.5-4.21 6.33-11.08 15.78-15.25 21-4.18 5.23-13.25 15.16-20.16 22.08-6.91 6.92-17.07 16.16-22.57 20.52-5.5 4.37-14.5 10.93-20 14.58-5.5 3.66-14.28 8.97-19.5 11.8-5.23 2.84-14.9 7.55-21.5 10.47-6.6 2.92-17.06 6.94-23.25 8.93-6.19 1.99-15.19 4.54-20 5.67-4.81 1.12-14.15 2.96-20.75 4.08-8.33 1.41-18.74 2.2-34 2.59-14.18 0.35-26.27 0.12-34-0.67-6.6-0.67-16.95-2.1-23-3.18-6.05-1.07-16.17-3.26-22.5-4.85-6.33-1.6-16.79-4.73-23.25-6.96-6.46-2.24-12.31-4.06-13-4.06-0.69-0.01-26.32 11.58-56.97 25.75-30.65 14.16-55.74 25.98-55.77 26.25-0.02 0.28 6.38 4.53 14.23 9.45 7.84 4.93 21.01 12.44 29.26 16.69 8.25 4.25 20.17 9.95 26.5 12.66 6.32 2.71 18.25 7.27 26.5 10.13 8.25 2.86 20.85 6.72 28 8.58 7.15 1.87 18.85 4.51 26 5.88 7.15 1.37 19.52 3.29 27.5 4.26 10.48 1.27 21.85 1.76 41 1.76 19.13 0 30.53-0.49 41-1.76 7.97-0.97 21.48-3.12 30-4.79 8.52-1.67 22.25-4.97 30.5-7.34 8.25-2.37 20.4-6.32 27-8.79 6.6-2.46 17.62-7.02 24.5-10.13 6.87-3.11 17.66-8.45 23.97-11.88 6.3-3.42 18-10.53 26-15.8 7.99-5.27 19.26-13.28 25.03-17.79 5.77-4.51 16.12-13.31 23-19.54 6.87-6.24 17.31-16.68 23.19-23.21 5.89-6.54 13.93-15.93 17.87-20.88 3.95-4.95 10.16-13.27 13.81-18.49 3.65-5.22 10.15-15.34 14.45-22.5 4.3-7.15 10.67-18.86 14.16-26.01 3.49-7.15 8.58-18.62 11.31-25.5 2.73-6.87 6.64-17.67 8.68-24 2.03-6.33 4.97-16.45 6.53-22.5 1.56-6.05 3.75-15.95 4.88-22 1.12-6.05 2.73-16.17 3.58-22.5 0.85-6.33 1.97-19.6 2.5-29.5 0.59-11.09 0.61-24.72 0.05-35.5-0.5-9.62-1.65-23.35-2.57-30.5-0.91-7.15-3.43-21.55-5.6-32-2.17-10.45-5.28-25.97-6.92-34.5-1.64-8.52-3.91-22.25-5.03-30.5-1.45-10.64-2.2-23-2.58-42.5-0.43-21.97-0.2-30.42 1.14-42 0.92-7.97 2.76-19.67 4.09-26 1.32-6.32 3.77-16.22 5.43-22 1.66-5.77 4.87-15.45 7.13-21.5 2.27-6.05 7.58-18.2 11.82-27 4.23-8.8 11.43-22.52 16-30.5 4.56-7.97 13.93-23.05 20.81-33.5 6.88-10.45 16.61-24.85 21.61-32 5-7.15 16.65-23.46 25.88-36.25 9.23-12.79 16.63-23.7 16.46-24.25-0.18-0.55-54.55 53.34-120.83 119.75zm-372.59-12.98c-3.99 0.23-12.99 0.84-20 1.36-7.02 0.52-18.61 1.88-25.76 3.01-7.15 1.13-17.73 3.12-23.5 4.41-5.78 1.3-15.9 3.91-22.5 5.81-6.6 1.9-17.85 5.57-25 8.16-7.15 2.59-19.3 7.59-27 11.11-7.7 3.51-18.95 9.13-25 12.48-6.05 3.36-17.98 10.76-26.5 16.45-8.53 5.69-20.45 14.27-26.5 19.07-6.05 4.8-19.58 17.31-30.07 27.8-10.49 10.49-23 24.02-27.8 30.07-4.8 6.05-12.94 17.3-18.1 25-5.16 7.7-12.63 19.85-16.6 27-3.97 7.15-9.69 18.4-12.71 25-3.02 6.6-7.7 17.85-10.41 25-2.72 7.15-6.89 19.75-9.28 28-2.4 8.25-5.49 20.4-6.88 27-1.39 6.6-3.45 18.3-4.58 26-1.12 7.7-2.57 22.78-3.23 33.5-0.9 14.94-0.9 24.06-0.01 39 0.65 10.73 2.1 25.8 3.23 33.5 1.13 7.7 3.17 19.17 4.53 25.5 1.36 6.33 4.29 17.8 6.52 25.5 2.22 7.7 6.93 21.54 10.47 30.75 3.53 9.21 7.56 20.69 8.96 25.5 1.4 4.81 3.28 12.8 4.19 17.75 1.09 5.93 1.65 14.45 1.65 25 0 11.28-0.54 18.81-1.81 25.5-1 5.23-3.58 14.9-5.73 21.5-2.16 6.6-6.71 17.63-10.12 24.5-3.4 6.88-10.54 19.03-15.85 27-5.31 7.98-13.82 19.67-18.9 26-5.08 6.33-13.65 16.45-19.03 22.5-5.38 6.05-15.11 16.67-21.61 23.6-6.51 6.93-20.66 22.01-31.44 33.5-10.79 11.5-22.99 24.73-27.12 29.4-4.13 4.67-11.62 13.67-16.64 20-5.02 6.33-8.92 11.73-8.67 12 0.25 0.28 1.94-0.8 3.75-2.39 1.81-1.59 72.48-64.71 157.04-140.25l153.75-137.36c-16.44-18.21-24.44-27.77-28.39-33-3.95-5.22-9.83-13.77-13.07-19-3.24-5.22-9.16-16.25-13.15-24.5-4-8.25-9.32-21.19-11.83-28.75-2.51-7.56-5.88-20.39-7.5-28.5-1.62-8.11-3.48-20.15-4.13-26.75-0.75-7.48-0.99-19.72-0.64-32.5 0.3-11.27 1.29-25.22 2.18-31 0.9-5.77 2.78-15.67 4.17-22 1.39-6.32 4.7-18.02 7.35-26 2.65-7.97 7.58-20.57 10.94-28 3.37-7.42 8.87-18.22 12.23-24 3.35-5.77 9.04-14.77 12.62-20 3.59-5.22 10.23-14 14.75-19.5 4.53-5.5 13.8-15.42 20.6-22.04 6.8-6.63 16.19-15.01 20.87-18.63 4.67-3.63 13.45-9.83 19.5-13.79 6.05-3.96 18.65-10.96 28-15.57 9.35-4.6 21.5-10.01 27-12.02 5.5-2.01 15.17-5.13 21.5-6.94 6.33-1.81 18.02-4.45 26-5.87 7.97-1.42 19.67-3.04 26-3.61 6.33-0.56 16.9-1.02 23.5-1.02 6.6 0 17.17 0.46 23.5 1.03 6.33 0.57 16.67 1.93 23 3.03 6.33 1.1 16.67 3.37 23 5.05 6.33 1.68 16.45 4.87 22.5 7.1 8.79 3.23 11.5 3.85 13.5 3.08 1.37-0.53 26.7-12.18 56.27-25.88 29.57-13.71 53.76-25.14 53.75-25.42 0-0.27-5.52-4.16-12.26-8.63-6.74-4.47-16.54-10.52-21.76-13.44-5.23-2.93-14-7.44-19.5-10.03-5.5-2.59-16.53-7.25-24.5-10.36-7.98-3.1-19.9-7.37-26.5-9.48-6.6-2.1-17.63-5.21-24.5-6.89-6.88-1.68-17.9-3.99-24.5-5.13-6.6-1.14-18.53-2.71-26.5-3.49-7.98-0.77-20.8-1.58-28.5-1.8-7.7-0.21-17.26-0.2-21.24 0.02z"/>
</svg>